<?xml version="1.0" standalone="no"?>
<!DOCTYPE svg PUBLIC "-//W3C//DTD SVG 20010904//EN"
 "http://www.w3.org/TR/2001/REC-SVG-20010904/DTD/svg10.dtd">
<svg version="1.0" xmlns="http://www.w3.org/2000/svg"
 width="749.000000pt" height="749.000000pt" viewBox="0 0 749.000000 749.000000"
 preserveAspectRatio="xMidYMid meet">

<g transform="translate(0.000000,749.000000) scale(0.100000,-0.100000)"
fill="#000000" stroke="none">
<path d="M370 4219 c25 -20 113 -97 181 -156 42 -38 58 -40 90 -14 23 18 23
20 6 38 -9 11 -17 24 -17 30 0 21 83 44 145 41 l60 -3 3 -60 c2 -46 -2 -68
-18 -93 -19 -31 -21 -32 -42 -17 -30 20 -39 19 -68 -7 -14 -13 -46 -40 -72
-61 -26 -21 -53 -43 -60 -50 -7 -7 -33 -28 -58 -48 -25 -20 -61 -51 -80 -68
-19 -17 -56 -48 -82 -68 l-47 -38 -1 -78 0 -78 27 21 c31 24 156 135 221 197
24 23 63 58 86 78 22 20 74 66 115 103 41 37 79 72 85 77 6 6 58 53 116 105
58 52 107 95 109 97 2 1 -4 18 -13 38 l-17 35 -347 0 -347 -1 25 -20z"/>
<path d="M6463 4223 c-43 -30 -17 -93 39 -93 54 0 77 65 33 94 -30 20 -43 20
-72 -1z"/>
<path d="M1448 4219 c-27 -15 -23 -56 6 -63 56 -14 98 30 59 60 -21 16 -42 17
-65 3z"/>
<path d="M2480 4091 c0 -68 -4 -102 -13 -109 -7 -6 -40 -12 -72 -14 -56 -3
-60 -4 -60 -28 0 -23 4 -25 63 -30 40 -3 66 -10 72 -20 5 -8 10 -104 10 -212
l0 -198 35 0 c26 0 35 4 36 18 0 9 2 102 5 206 2 104 7 193 11 197 5 4 35 9
68 11 57 3 60 4 63 31 l3 27 -70 0 -71 0 0 91 c0 106 -9 129 -50 129 l-30 0 0
-99z"/>
<path d="M4275 4178 c-3 -7 -6 -56 -7 -108 l-3 -95 -72 -3 -73 -3 0 -29 0 -30
69 0 c54 0 70 -4 75 -16 3 -9 6 -106 6 -215 l0 -200 38 3 37 3 3 199 c1 127 6
204 13 213 7 8 34 13 70 13 59 0 59 0 59 30 0 29 0 29 -67 32 l-68 3 -5 105
-5 105 -33 3 c-20 2 -34 -2 -37 -10z"/>
<path d="M6058 4088 l-3 -103 -65 -5 -65 -5 0 -35 0 -35 57 -5 c31 -3 62 -10
67 -15 6 -6 12 -92 13 -210 l3 -200 48 -3 47 -3 0 198 c0 109 4 204 9 212 5 8
35 16 72 20 l64 6 0 35 0 35 -60 3 c-79 4 -85 13 -85 124 l0 88 -50 0 -49 0
-3 -102z"/>
<path d="M1128 4112 c-1 -4 -32 -34 -68 -67 -36 -32 -85 -77 -110 -99 -169
-155 -288 -262 -365 -331 -50 -44 -110 -99 -135 -122 l-45 -43 110 0 111 0 86
73 c47 39 127 106 176 147 50 41 93 81 96 88 3 8 -1 20 -9 28 -23 23 -18 42
13 48 65 12 141 16 146 8 8 -13 -11 -133 -23 -145 -7 -7 -18 -6 -36 3 -22 12
-27 11 -45 -5 -19 -17 -28 -55 -12 -55 4 0 50 -39 102 -85 52 -46 98 -81 103
-76 4 4 6 142 5 306 l-3 298 -30 18 c-32 19 -61 24 -67 11z"/>
<path d="M6914 4021 c-58 -15 -127 -56 -161 -96 -52 -61 -68 -102 -68 -175 1
-207 243 -341 461 -254 36 15 68 33 71 41 6 15 -33 63 -52 63 -6 0 -30 -9 -53
-20 -90 -43 -220 -17 -281 56 -71 87 -64 172 21 249 37 33 60 46 95 51 64 9
156 -1 187 -21 26 -17 28 -17 54 2 40 30 34 53 -21 80 -36 19 -69 25 -135 28
-48 3 -101 1 -118 -4z"/>
<path d="M3030 4004 c-19 -7 -47 -13 -62 -13 -16 -1 -28 -5 -28 -10 0 -5 -13
-14 -29 -21 -92 -38 -147 -165 -121 -275 10 -41 24 -65 62 -104 105 -108 239
-130 388 -63 57 25 64 37 34 61 l-25 20 -37 -21 c-25 -14 -61 -23 -113 -26
-83 -5 -121 8 -188 65 -36 31 -46 77 -20 95 8 5 105 7 237 5 123 -3 232 -3
243 0 15 4 19 14 19 49 0 23 -4 46 -10 49 -5 3 -10 13 -10 21 0 54 -103 136
-207 165 -78 21 -85 21 -133 3z m177 -90 c59 -33 82 -61 83 -101 l0 -33 -205
0 -205 0 0 30 c0 22 10 41 33 63 53 53 84 65 170 66 66 1 85 -3 124 -25z"/>
<path d="M5455 4007 c-84 -24 -164 -100 -190 -178 -45 -134 19 -265 162 -330
104 -48 225 -38 331 26 40 24 40 38 2 65 l-30 21 -54 -25 c-65 -31 -143 -34
-202 -10 -48 20 -107 78 -102 102 3 15 25 17 250 20 204 2 248 5 258 17 18 22
-3 118 -35 167 -33 50 -117 110 -175 125 -56 15 -162 15 -215 0z m215 -97 c51
-26 91 -70 88 -95 -3 -19 -11 -20 -193 -20 -169 0 -190 2 -193 17 -4 20 41 70
88 97 49 28 157 28 210 1z"/>
<path d="M4775 3978 c-22 -11 -57 -36 -78 -56 -57 -55 -68 -107 -65 -293 l3
-154 50 0 50 0 2 165 c3 189 12 219 75 251 73 37 160 16 206 -51 20 -31 22
-44 22 -189 0 -86 4 -162 9 -169 5 -8 23 -12 47 -10 l39 3 3 170 c4 232 -12
268 -140 330 -66 32 -162 33 -223 3z"/>
<path d="M6462 3992 c-9 -7 -12 -66 -10 -263 l3 -254 48 -3 47 -3 0 265 0 266
-37 0 c-21 0 -44 -4 -51 -8z"/>
<path d="M1880 3980 c-8 -4 -32 -16 -52 -24 -40 -18 -108 -93 -108 -119 0 -9
-4 -19 -10 -22 -6 -4 -10 -72 -10 -171 l0 -164 40 0 40 0 0 158 c0 171 5 195
56 245 45 46 155 49 214 7 54 -38 61 -66 62 -228 0 -81 2 -155 5 -164 3 -13
14 -18 39 -18 l34 0 0 163 c0 224 -16 260 -134 318 -61 30 -142 38 -176 19z"/>
<path d="M3685 3980 c-3 -5 -12 -10 -20 -10 -34 0 -104 -57 -129 -105 -25 -48
-26 -56 -26 -218 l0 -168 38 3 37 3 3 172 2 173 40 38 c67 68 175 72 241 10
38 -35 42 -57 48 -233 l6 -160 33 -3 32 -3 1 53 c3 128 1 241 -5 287 -8 61
-55 113 -134 148 -55 24 -155 32 -167 13z"/>
<path d="M1444 3967 c-2 -7 -3 -118 -2 -247 l3 -235 33 -3 32 -3 0 250 0 251
-30 0 c-17 0 -33 -6 -36 -13z"/>
</g>
</svg>
