<?xml version="1.0" standalone="no"?>
<!DOCTYPE svg PUBLIC "-//W3C//DTD SVG 20010904//EN"
 "http://www.w3.org/TR/2001/REC-SVG-20010904/DTD/svg10.dtd">
<svg version="1.0" xmlns="http://www.w3.org/2000/svg"
 width="749.000000pt" height="749.000000pt" viewBox="0 0 749.000000 749.000000"
 preserveAspectRatio="xMidYMid meet">

<g transform="translate(0.000000,749.000000) scale(0.100000,-0.100000)"
fill="#000000" stroke="none">
<path d="M1585 4286 c-48 -14 -53 -30 -27 -88 10 -24 22 -51 25 -61 6 -16 14
-18 64 -10 111 15 255 1 331 -34 96 -43 132 -103 118 -198 -6 -38 -13 -49 -50
-73 -45 -31 -142 -56 -256 -67 -80 -8 -89 -1 -99 82 -17 145 -142 229 -307
208 -49 -6 -60 -12 -108 -61 -48 -49 -55 -61 -61 -109 -15 -124 24 -207 120
-250 36 -17 71 -25 109 -25 44 0 57 -4 66 -19 6 -11 10 -87 10 -175 0 -112 3
-157 12 -162 16 -10 140 -6 149 4 4 4 10 79 13 167 4 88 12 165 17 170 5 6 63
13 127 16 71 4 133 12 157 22 22 9 46 16 52 17 17 0 110 58 137 84 28 27 56
71 63 99 25 103 26 124 7 183 -10 32 -27 74 -38 93 -21 36 -85 100 -100 101
-5 0 -17 6 -25 13 -21 18 -86 40 -188 66 -94 24 -252 27 -318 7z m-91 -421
c31 -29 33 -55 7 -79 -21 -19 -72 -15 -98 6 -32 25 3 98 46 98 10 0 30 -11 45
-25z"/>
<path d="M3185 3941 c-110 -19 -218 -100 -270 -203 -23 -46 -27 -66 -28 -148
0 -83 3 -102 26 -149 28 -59 106 -146 140 -157 12 -3 29 -12 37 -19 21 -17
100 -35 152 -35 84 0 185 39 244 93 42 37 49 65 21 77 -12 4 -39 20 -60 34
-42 29 -69 33 -86 13 -6 -8 -35 -22 -66 -32 -53 -19 -55 -19 -102 1 -73 30
-67 45 34 89 88 38 107 46 238 105 137 60 141 66 104 139 -24 47 -101 129
-141 148 -88 43 -166 57 -243 44z m138 -188 c10 -2 17 -14 17 -29 0 -15 -7
-27 -17 -30 -10 -3 -46 -19 -79 -34 -34 -16 -73 -32 -88 -36 -14 -3 -29 -10
-32 -15 -3 -5 -17 -9 -31 -9 -24 0 -25 3 -20 35 17 102 124 153 250 118z"/>
<path d="M2415 3918 c-3 -13 -4 -169 -3 -348 l3 -325 65 -3 c35 -2 75 0 87 3
l23 5 0 209 0 208 30 41 c32 44 91 69 136 58 12 -3 26 -1 29 4 11 17 25 138
19 154 -8 21 -128 22 -177 1 -45 -19 -86 -19 -111 0 -11 8 -37 15 -58 15 -31
0 -39 -4 -43 -22z"/>
<path d="M3707 3933 c-4 -3 -7 -209 -7 -458 0 -349 3 -455 13 -469 10 -14 25
-16 87 -14 l75 3 5 125 c5 134 11 155 38 141 9 -5 49 -14 89 -21 160 -28 304
41 384 185 32 57 34 65 34 160 0 90 -3 106 -28 155 -47 92 -103 141 -207 182
-58 23 -232 25 -270 3 -33 -19 -84 -19 -100 0 -13 15 -100 22 -113 8z m471
-194 c54 -42 75 -85 75 -148 0 -61 -13 -92 -58 -138 -29 -30 -86 -53 -127 -52
-89 1 -188 97 -188 181 0 72 60 158 124 178 48 15 143 4 174 -21z"/>
<path d="M4810 3922 c-99 -37 -160 -87 -211 -172 -32 -53 -33 -59 -33 -165 -1
-98 2 -115 24 -155 63 -116 146 -176 273 -199 67 -12 137 -1 205 32 35 17 47
19 60 9 42 -29 89 -43 142 -40 l55 3 3 74 c3 68 1 76 -23 101 l-25 26 -2 235
c-1 129 -5 242 -10 252 -11 22 -39 22 -96 -3 l-47 -20 -59 20 c-73 25 -191 26
-256 2z m201 -180 c47 -32 66 -57 84 -110 15 -48 15 -56 1 -97 -30 -90 -89
-135 -176 -135 -127 0 -214 107 -182 226 14 51 43 93 82 117 36 22 157 22 191
-1z"/>
<path d="M5414 3926 c-3 -8 7 -47 21 -88 15 -40 30 -91 34 -113 4 -22 12 -49
19 -60 6 -11 18 -47 27 -80 9 -33 25 -85 35 -115 10 -30 28 -86 40 -125 35
-116 34 -115 148 -115 l97 0 17 33 c10 17 20 50 24 71 4 22 13 51 20 65 8 14
14 33 14 41 0 8 6 32 14 55 8 22 17 52 20 68 4 18 13 27 25 27 25 0 37 -17 46
-65 4 -22 11 -45 16 -51 5 -6 13 -31 18 -55 11 -52 27 -101 50 -149 l16 -35
101 -3 100 -3 22 44 c12 24 22 54 22 65 0 12 6 36 14 54 7 18 21 60 31 93 24
81 49 162 85 270 16 50 31 110 32 135 l3 45 -71 3 c-89 4 -96 -4 -130 -129
-14 -52 -30 -99 -35 -104 -4 -6 -11 -31 -15 -55 -4 -24 -13 -55 -21 -69 -7
-14 -13 -31 -13 -37 0 -6 -6 -17 -14 -23 -11 -9 -18 -3 -34 31 -11 24 -27 66
-35 93 -9 28 -23 73 -32 100 -9 28 -22 74 -30 103 -26 93 -25 92 -115 92 -72
0 -80 -2 -99 -25 -11 -14 -23 -40 -26 -58 -12 -55 -36 -131 -51 -159 -8 -14
-14 -41 -14 -60 0 -19 -7 -43 -15 -54 -8 -10 -15 -26 -15 -34 0 -8 -4 -21 -9
-29 -17 -27 -37 5 -70 111 -18 57 -37 117 -43 133 -5 17 -14 47 -19 67 -5 20
-17 53 -26 73 l-17 35 -78 0 c-58 0 -80 -4 -84 -14z"/>
</g>
</svg>
